<svg width="20" height="18" viewBox="0 0 20 18" fill="none" xmlns="http://www.w3.org/2000/svg">
<path fill-rule="evenodd" clip-rule="evenodd" d="M10.3908 0.853901C10.9795 0.265171 11.9341 0.265171 12.5228 0.853901L19.558 7.88908C19.8407 8.1718 19.9995 8.55524 19.9995 8.95507C19.9995 9.35489 19.8407 9.73834 19.558 10.0211L12.0203 17.5587C11.4315 18.1475 10.477 18.1475 9.88829 17.5587C9.29956 16.97 9.29956 16.0155 9.88829 15.4268L14.8525 10.4626L1.50705 10.4626C0.674459 10.4626 -0.000488401 9.78766 -0.000488281 8.95507C-0.000488161 8.12248 0.674459 7.44753 1.50705 7.44753L14.8525 7.44753L10.3908 2.98588C9.80208 2.39715 9.80208 1.44263 10.3908 0.853901Z" fill="#444444"/>
</svg>
